<svg width="97" height="97" viewBox="0 0 97 97" fill="none" xmlns="http://www.w3.org/2000/svg">
<path d="M0.5 48.5C0.5 21.9903 21.9903 0.5 48.5 0.5C75.0097 0.5 96.5 21.9903 96.5 48.5C96.5 75.0097 75.0097 96.5 48.5 96.5C21.9903 96.5 0.5 75.0097 0.5 48.5Z" fill="black"/>
<path d="M43.9951 43.4011V41.5325C43.3549 41.447 42.7041 41.3936 42.0319 41.3936C34.0191 41.383 27.5 47.9075 27.5 55.9378C27.5 60.8606 29.954 65.2175 33.7097 67.8551C31.2877 65.2602 29.8046 61.7682 29.8046 57.9453C29.8046 50.0325 36.1423 43.5827 43.9951 43.4011Z" fill="#25F4EE"/>
<path d="M44.3462 64.5872C47.9205 64.5872 50.8439 61.7361 50.972 58.1908L50.9827 26.5076H56.7656C56.6481 25.8562 56.5842 25.1834 56.5842 24.5H48.6887L48.678 56.1832C48.55 59.7285 45.6265 62.5796 42.0522 62.5796C40.9426 62.5796 39.897 62.302 38.9688 61.8107C40.1637 63.4873 42.1269 64.5872 44.3462 64.5872Z" fill="#25F4EE"/>
<path d="M67.5755 37.2601V35.4983C65.367 35.4983 63.3183 34.8468 61.5898 33.7148C63.1262 35.4769 65.2068 36.7583 67.5755 37.2601Z" fill="#25F4EE"/>
<path d="M61.5892 33.7158C59.9034 31.783 58.8898 29.2629 58.8898 26.5078H56.7773C57.3214 29.5192 59.114 32.1034 61.5892 33.7158Z" fill="#FE2C55"/>
<path d="M42.0427 49.2852C38.383 49.2852 35.4062 52.2646 35.4062 55.9273C35.4062 58.4795 36.8573 60.7006 38.9699 61.8112C38.1803 60.7219 37.7109 59.3872 37.7109 57.9348C37.7109 54.2721 40.6877 51.2928 44.3474 51.2928C45.0302 51.2928 45.6917 51.4102 46.3105 51.6025V43.5296C45.6703 43.4441 45.0195 43.3906 44.3474 43.3906C44.23 43.3906 44.1233 43.4013 44.0059 43.4013V49.5949C43.3764 49.4026 42.7255 49.2852 42.0427 49.2852Z" fill="#FE2C55"/>
<path d="M67.5742 37.2607V43.4009C63.477 43.4009 59.6787 42.0875 56.5844 39.8663V55.9375C56.5844 63.9571 50.0654 70.4924 42.0419 70.4924C38.9477 70.4924 36.067 69.5099 33.709 67.8548C36.3657 70.7059 40.1534 72.5 44.3466 72.5C52.3593 72.5 58.8891 65.9753 58.8891 57.9451V41.8739C61.9832 44.0951 65.7816 45.4084 69.8787 45.4084V37.5064C69.0785 37.5064 68.3103 37.4209 67.5742 37.2607Z" fill="#FE2C55"/>
<path d="M56.5851 55.9378V39.8666C59.6794 42.0878 63.4778 43.4012 67.5749 43.4012V37.261C65.2062 36.7593 63.1256 35.4778 61.5893 33.7158C59.1139 32.1034 57.3321 29.5192 56.7665 26.5078H50.9837L50.973 58.1909C50.8451 61.7362 47.9215 64.5874 44.3473 64.5874C42.128 64.5874 40.1755 63.4875 38.9592 61.8217C36.8466 60.7004 35.3955 58.4901 35.3955 55.9378C35.3955 52.2751 38.3723 49.2957 42.032 49.2957C42.7148 49.2957 43.3763 49.4132 43.9952 49.6054V43.4118C36.1424 43.5827 29.8047 50.0325 29.8047 57.9454C29.8047 61.7682 31.2878 65.2495 33.7097 67.8551C36.0677 69.5102 38.9485 70.4927 42.0426 70.4927C50.0555 70.4927 56.5851 63.9574 56.5851 55.9378Z" fill="white"/>
</svg>
