<svg width="97" height="96" viewBox="0 0 97 96" fill="none" xmlns="http://www.w3.org/2000/svg">
<path d="M0.5 48C0.5 74.5097 21.9903 96 48.5 96C75.0097 96 96.5 74.5097 96.5 48C96.5 21.4903 75.0097 0 48.5 0C21.9903 0 0.5 21.4903 0.5 48Z" fill="#FF0000"/>
<path d="M71.3 36.3001C70.7 34.2001 69.2 32.7001 67.1 32.1001C63.5 31.2001 48.2 31.2001 48.2 31.2001C48.2 31.2001 33.2 31.2001 29.3 32.1001C27.2 32.7001 25.7 34.2001 25.1 36.3001C24.5 40.2001 24.5 48.0001 24.5 48.0001C24.5 48.0001 24.5 55.8001 25.4 59.7001C26 61.8001 27.5 63.3001 29.6 63.9001C33.2 64.8001 48.5 64.8001 48.5 64.8001C48.5 64.8001 63.5 64.8001 67.4 63.9001C69.5 63.3001 71 61.8001 71.6 59.7001C72.5 55.8001 72.5 48.0001 72.5 48.0001C72.5 48.0001 72.5 40.2001 71.3 36.3001ZM43.7 55.2001V40.8001L56.3 48.0001L43.7 55.2001Z" fill="white"/>
</svg>
